<svg width="40" height="40" viewBox="0 0 40 40" fill="none" xmlns="http://www.w3.org/2000/svg">
<path d="M28.1009 23.27199C28.91871 23.27199 29.7377 22.4541 29.7377 21.63508V10.18066C29.7377 9.36285 28.9198 8.54387 28.1009 8.54387H15.01078C14.19289 8.54387 13.37398 9.36172 13.37398 10.18066V21.63508C13.37398 22.45297 14.1918 23.27199 15.01078 23.27199H28.1009ZM18.28219 11.81762H24.82719C25.64508 11.81762 26.4641 12.63543 26.4641 13.45441S25.64621 15.09121 24.82719 15.09121H18.28219C17.4643 15.09121 16.64539 14.2734 16.64539 13.45441S17.4632 11.81762 18.28219 11.81762ZM18.28219 16.72691H23.19148C24.00937 16.72691 24.8284 17.5448 24.8284 18.36371C24.8284 19.1827 24.01051 20.00062 23.19148 20.00062H18.28219C17.4643 20.00062 16.64539 19.18273 16.64539 18.36371C16.64539 17.5448 17.4632 16.72691 18.28219 16.72691ZM5.19211 11.81762H8.46465C9.2825 11.81762 10.10145 10.99973 10.10145 10.1807C10.10145 9.36176 9.28363 8.54391 8.46465 8.54391H5.19211C4.37426 8.54391 3.55527 9.36176 3.55527 10.1807C3.55527 10.99969 4.37313 11.81762 5.19211 11.81762ZM5.19211 13.45441H8.46465V16.72691H5.19211V13.45441ZM5.19211 23.27199H8.46465V26.54449H5.19211V23.27199ZM36.2816 6.25461C35.79109 3.79992 33.66379 2 31.3723 2H10.10031C7.48254 2 5.19098 4.29043 5.19098 6.90934H8.46352C8.46352 6.09148 9.28137 5.2725 10.10031 5.2725H31.3723C32.02699 5.2725 32.84492 5.92723 33.0091 6.90934V33.0907C33.0091 33.90852 32.51859 34.7275 31.53648 34.7275H10.10027C9.28242 34.7275 8.46348 34.07281 8.46348 33.25488V33.0918H5.19094V33.25488C5.19094 35.8727 7.31824 38 10.10027 38H31.69957C34.31738 38 36.44469 35.8727 36.44469 33.0907V6.58199L36.2816 6.25465ZM5.19211 21.63629H8.46465C9.2825 21.63629 10.10145 20.8184 10.10145 19.99938C10.10145 19.18047 9.28363 18.36258 8.46465 18.36258H5.19211C4.37426 18.36258 3.55527 19.18047 3.55527 19.99938C3.55527 20.81836 4.37313 21.63629 5.19211 21.63629ZM8.46461 31.45379C9.28246 31.45379 10.10141 30.63598 10.10141 29.81699S9.28359 28.1802 8.46461 28.1802H5.19207C4.37422 28.1802 3.55523 28.99801 3.55523 29.81699S4.37309 31.45379 5.19207 31.45379H8.46461Z" />
</svg>
