<svg width="40" height="40" viewBox="0 0 40 40" fill="none" xmlns="http://www.w3.org/2000/svg">
<path d="M34.71719 6.0916L33.08039 4.45473C31.93508 3.30949 29.9709 3.30949 28.82559 4.45473L15.73508 17.54527C15.08039 18.19996 13.77199 20.98207 13.77199 20.98207C12.62668 23.43688 12.13508 24.90945 13.11719 25.89156C13.28039 26.38207 13.77199 26.54637 14.42668 26.54637C16.06359 26.54637 20.64457 24.09156 21.46359 23.43688L34.5541 10.34637C35.86359 9.20109 35.86359 7.23684 34.71719 6.0916ZM19.33512 21.14641C19.00773 21.47371 17.8625 21.96422 16.71723 22.61902C17.20773 21.47371 17.86254 20.49164 18.02672 20.16422L30.9541 7.23688L32.09941 8.38211L19.33512 21.14641ZM32.2625 16.72852C31.44461 16.72852 30.62559 17.54641 30.62559 18.36543V34.72852H7.71609V5.27375H24.07918C25.06137 5.27375 25.71609 4.61898 25.71609 3.63687S25.06141 2 24.07918 2H6.07922C5.26133 2 4.44234 2.81789 4.44234 3.63687V36.03691C4.44234 36.85473 5.26023 38 6.07922 38H32.26141C33.07922 38 33.8982 37.18211 33.8982 36.36309V18.36309C33.8982 17.5452 33.08039 16.72617 32.26141 16.72617L32.2625 16.72848Z" />
</svg>
