<svg width="40" height="40" viewBox="0 0 40 40" fill="none" xmlns="http://www.w3.org/2000/svg">
<path d="M32.20469 34.7284H30.89508C32.6952 32.7652 33.84047 30.14609 33.84047 27.365C33.84047 23.6018 31.87727 20.1648 28.76766 18.3648H28.93074V5.27387H30.56766C31.54984 5.27387 32.20465 4.6191 32.20465 3.63695S31.54984 2.00004 30.56766 2.00004H15.83984C14.85766 2.00004 14.20293 2.6548 14.20293 3.63695S14.85762 5.27387 15.83984 5.27387H17.47676V18.3648H17.63996C16.00297 19.34691 14.69457 20.81961 13.87668 22.45539L12.23977 20.81848L11.42188 17.21836C11.42188 17.21836 10.93137 16.72777 10.27656 16.72777C9.78605 16.72777 8.96703 17.21836 8.96703 17.21836L6.67645 19.50887C6.67645 19.50887 6.02168 20.32676 6.18594 20.98156S6.67645 22.12687 6.67645 22.12687L10.27656 22.94477L12.89457 25.56266C12.56719 26.05324 12.56719 26.70797 12.56719 27.36277C12.56719 30.14496 13.7125 32.76297 15.5125 34.72617H14.20301C13.22082 34.72617 12.56602 35.38086 12.56602 36.36309C12.56602 37.3452 13.22082 38 14.20301 38H32.20352C33.1857 38 33.84051 37.3452 33.84051 36.36309C33.84051 35.3809 33.1857 34.72617 32.20352 34.72617L32.20473 34.72836ZM15.84102 27.36391C15.84102 24.09121 17.96852 21.4732 20.7507 20.49109V5.27273H25.66031V20.49109C28.4425 21.4732 30.57 24.2543 30.57 27.36391C30.57 31.45449 27.2973 34.7273 23.2066 34.7273C19.11602 34.7273 15.84332 31.45449 15.84332 27.36391H15.84102ZM28.93191 27.85559C26.96871 27.69238 26.80453 26.71027 25.65922 26.54598C24.51391 26.54598 24.0223 27.69129 23.20441 27.69129C22.0591 27.69129 21.73172 26.54598 20.74961 26.54598C19.6043 26.54598 19.44 27.69129 18.78641 27.69129C18.45902 27.69129 17.96852 27.5282 17.64109 27.36391C17.47789 27.69129 17.47789 28.01871 17.47789 28.34609C17.47789 30.96398 20.2602 33.09148 23.04117 33.09148C25.82227 33.09148 28.93188 30.8009 28.93188 28.34609C28.93188 28.18289 28.93188 28.01871 28.93188 27.85559Z" />
</svg>
