<svg width="40" height="40" viewBox="0 0 40 40" fill="none" xmlns="http://www.w3.org/2000/svg">
<path d="M31.9452 2H5.6C4.61789 2 3.63688 2.98215 3.63688 3.96313C3.63688 4.45363 3.8 4.94527 4.12738 5.27262L16.56422 18.52738L21.14641 23.27258H13.4559C13.4559 23.27258 11.81898 23.27258 11.81898 24.90949S13.4559 26.54641 13.4559 26.54641H24.91059C24.91059 26.54641 26.5475 26.38332 26.5475 24.90949V13.4548C26.5475 13.4548 26.5475 11.81789 24.91059 11.81789C23.27379 11.81789 23.27379 13.4548 23.27379 13.4548V20.98211L8.38324 5.27262H31.94641C33.41902 5.27262 34.72852 6.58211 34.72852 8.05477V31.94523C34.72852 33.41793 33.41902 34.72742 31.94641 34.72742H8.05586C6.58324 34.72742 5.27375 33.41793 5.27375 31.94523V24.90844C5.27375 23.92633 4.61898 23.27152 3.63687 23.27152S2 23.92633 2 24.90844V31.94523C2 35.21793 4.78211 38.00004 8.05477 38.00004H31.94523C35.21793 38.00004 38.00004 35.21793 38.00004 31.94523V8.05477C38.00004 4.78215 35.21793 2 31.94523 2Z" />
</svg>
