<svg width="40" height="40" viewBox="0 0 40 40" fill="none" xmlns="http://www.w3.org/2000/svg">
<path d="M18.36211 16.7282H5.27242C3.46465 16.7282 2 18.19281 2 20.00059V26.54547H3.63676V34.72707C3.63676 36.53477 5.10141 37.99945 6.90918 37.99945H16.72648C18.53418 37.99945 19.99887 36.53477 19.99887 34.72707V26.54547H21.63559V20.00059C21.63559 18.19277 20.16988 16.7282 18.36207 16.7282ZM16.72648 34.72711H6.90918V26.54551H16.72648V34.72711ZM18.36211 23.27301H5.27242V20.00062H18.36211V23.27301ZM10.1816 29.81789H13.45398V31.45461H10.1816V29.81789ZM37.99781 18.36379C37.99781 12.94168 33.6027 8.54656 28.18051 8.54656H22.30609L26.0532 4.79941C26.3525 4.50242 26.53699 4.09184 26.53699 3.63734C26.53699 2.73289 25.80348 2.00059 24.9002 2.00059C24.4502 2.00059 24.04301 2.18168 23.74598 2.47645L17.20117 9.02129C16.90758 9.31715 16.72527 9.72438 16.72527 10.1743C16.72527 10.6243 16.90758 11.0327 17.20117 11.32852L23.74598 17.8734C24.03059 18.1175 24.40297 18.26711 24.8102 18.26711C25.71348 18.26711 26.44699 17.5348 26.44699 16.63031C26.44699 16.22313 26.29848 15.8507 26.05211 15.56391L22.30723 11.81902H28.18164C31.79605 11.81902 34.72652 14.74941 34.72652 18.36383V24.90871C34.72652 25.81199 35.45883 26.54551 36.36324 26.54551C37.26773 26.54551 38.00004 25.81312 38.00004 24.90871V18.36383H37.99785Z" />
</svg>
