<svg width="40" height="40" viewBox="0 0 40 40" fill="none" xmlns="http://www.w3.org/2000/svg">
<path d="M5.3123 17.1271C4.80378 16.8053 4.21202 16.667 3.69676 17.0708C3.22874 17.4342 3.08361 17.9765 3.10162 18.5412C3.10162 18.5491 3.10162 18.5041 3.10162 18.5266C3.13537 18.8146 3.21749 19.0993 3.40087 19.331C3.67763 19.6753 4.16814 19.8812 4.58328 19.664C4.84091 19.5223 4.93541 19.2343 5.04004 18.98C5.20092 18.5874 5.4473 18.2172 5.75443 17.9214C6.4272 17.2666 7.46335 17.0045 8.31275 17.4871C9.16889 17.9731 9.46815 18.998 9.21052 19.9183C8.97877 20.7339 8.39487 21.4033 7.81549 21.994C7.18659 22.6375 6.4092 23.146 5.64193 23.614C6.01544 23.083 6.41595 22.5711 6.80183 22.0435C7.2316 21.4562 7.57585 20.8352 7.88299 20.1804C7.86049 20.2175 7.87961 20.1883 7.87174 20.195C7.99549 19.8429 8.11474 19.4469 7.96511 19.0835C7.81549 18.7134 7.40372 18.6009 7.06734 18.7876C6.4317 19.1398 6.36082 19.9734 5.89619 20.4819C5.25267 21.1884 4.21989 21.3684 3.36375 20.9646C2.95649 20.7733 2.60435 20.456 2.36922 20.0702C2.14084 19.7 1.96534 19.1836 2.00584 18.7381C2.01709 17.9416 2.36472 17.1563 3.03861 16.703C3.43912 16.4374 3.92514 16.3137 4.3999 16.4296C4.80716 16.5196 5.08054 16.793 5.3123 17.1248V17.1271ZM12.9085 16.7491C13.4845 16.6636 14.0943 16.8245 14.5432 17.1946C14.5994 17.2362 14.5544 17.3026 14.5094 17.3476C14.3485 17.5085 14.3002 17.5568 14.1168 17.7369C14.0088 17.8449 13.9413 17.8044 13.8805 17.7706C13.7016 17.6739 13.417 17.576 13.2111 17.5839C12.994 17.5872 12.7589 17.6367 12.6014 17.801C12.4517 17.9506 12.4259 18.1902 12.4889 18.3849C12.5417 18.5424 12.6869 18.6391 12.8297 18.7066C13.282 18.908 13.795 18.9316 14.236 19.1555C14.5578 19.3051 14.8345 19.574 14.9279 19.9228C15.0359 20.3233 15.0067 20.7722 14.8087 21.1423C14.6107 21.5158 14.236 21.7746 13.8355 21.8905C13.0277 22.1301 12.1255 21.9355 11.4493 21.4494C11.3931 21.4157 11.4043 21.3144 11.4527 21.2661C11.6215 21.0973 11.6957 21.0231 11.8791 20.8397C11.9162 20.7981 12.0028 20.7913 12.1558 20.8881C12.5001 21.1052 12.8849 21.1952 13.2933 21.1457C13.5183 21.1232 13.75 21.0557 13.9064 20.8836C14.0673 20.7081 14.0931 20.4425 14.0369 20.2175C13.9885 20.0454 13.8423 19.9217 13.6848 19.8508C13.183 19.6224 12.6036 19.6078 12.121 19.331C11.8555 19.1814 11.6608 18.9193 11.5933 18.6279C11.5112 18.2611 11.5225 17.8572 11.7013 17.5208C11.9376 17.0686 12.4236 16.8098 12.9062 16.7502L12.9085 16.7491ZM26.9061 16.8166C27.1716 16.8166 27.2729 16.8166 27.5676 16.8166C27.6272 16.8132 27.7139 16.82 27.7172 16.8987C27.7285 17.4747 27.7139 18.0541 27.7251 18.6301C27.7364 18.7055 27.8151 18.656 27.841 18.6189C28.0424 18.4175 28.327 18.3084 28.6116 18.2892C28.9255 18.2634 29.2619 18.3196 29.5207 18.5142C29.7524 18.683 29.8908 18.9485 29.9549 19.2253C30.0145 19.4728 30.0033 19.7225 30.0033 19.9734C30.0033 20.5832 30.0033 21.1929 30.0033 21.8027C30.0146 21.8702 29.9617 21.9377 29.8908 21.9298C29.6658 21.9298 29.4419 21.9332 29.2214 21.9298C29.1539 21.9332 29.1089 21.8668 29.1168 21.8027C29.1134 21.1074 29.1202 20.411 29.1134 19.7158C29.1134 19.4986 29.038 19.1735 28.8333 19.0655C28.5644 18.9305 28.2348 18.9755 27.9805 19.1251C27.8646 19.196 27.7229 19.3648 27.7262 19.5178C27.7229 20.2884 27.7296 21.0591 27.7229 21.8297C27.7307 21.8972 27.6632 21.9377 27.6036 21.931C27.3831 21.931 27.1581 21.9343 26.9376 21.9276C26.8701 21.9276 26.8363 21.8601 26.8442 21.8005C26.8442 20.1883 26.8442 18.5728 26.8442 16.9606C26.833 16.9077 26.8442 16.8335 26.9072 16.8188L26.9061 16.8166ZM36.047 18.2566C36.488 18.1936 36.9627 18.2679 37.334 18.5255C37.6366 18.7348 37.8538 19.0644 37.9404 19.4199C37.9663 19.5099 38 19.637 38 19.7417C38 20.0713 37.9404 20.3627 37.3677 20.3627C37.091 20.3627 35.8568 20.3627 35.6251 20.3627C35.5834 20.3593 35.5238 20.3852 35.5351 20.4335C35.5542 20.6957 35.6926 20.9567 35.9198 21.0951C36.2596 21.3009 36.7388 21.3043 37.0572 21.0534C37.1101 21.0163 37.181 20.9601 37.2406 21.0163C37.3981 21.1322 37.5511 21.2559 37.7086 21.3752C37.7649 21.4123 37.7682 21.499 37.7165 21.5395C37.4094 21.8162 36.9942 21.958 36.587 21.9737C36.1122 21.9962 35.6217 21.8657 35.2549 21.5586C34.896 21.2739 34.6755 20.8296 34.6643 20.3694C34.653 19.9655 34.6384 19.5425 34.8105 19.169C35.0164 18.6751 35.5137 18.3241 36.0492 18.2566H36.047ZM36.1932 18.9789C36.0402 19.0014 35.894 19.0644 35.7814 19.1735C35.6318 19.3231 35.5564 19.5369 35.5418 19.7417C35.5497 19.7945 35.6172 19.7945 35.6543 19.7945C36.1111 19.7945 36.5633 19.7945 37.019 19.7945C37.0527 19.7912 37.1124 19.7945 37.1157 19.7462C37.1011 19.4986 36.9999 19.2376 36.7906 19.0959C36.6218 18.9721 36.398 18.9541 36.1921 18.98L36.1932 18.9789ZM16.5255 18.3129C16.8663 18.2499 17.2399 18.2904 17.5357 18.485C17.6404 18.5446 17.7225 18.6346 17.8204 18.7055C17.9475 18.6425 17.8462 18.3804 18.0184 18.3466C18.213 18.3387 18.4031 18.3432 18.5978 18.3432C18.6653 18.3354 18.7136 18.4029 18.7058 18.4625C18.7058 19.574 18.7058 20.6844 18.7058 21.7993C18.7136 21.8623 18.6686 21.9343 18.6011 21.9265C18.3998 21.9298 18.1939 21.9265 17.9914 21.9265C17.9351 21.9265 17.8564 21.9343 17.8271 21.8702C17.8046 21.7802 17.8237 21.6868 17.8125 21.5935C17.8012 21.5901 17.7754 21.5822 17.7641 21.5743C17.6707 21.6418 17.5886 21.7273 17.484 21.7836C17.1363 22.0086 16.683 22.0311 16.2982 21.8961C15.9686 21.7802 15.6997 21.526 15.5422 21.2188C15.4038 20.9499 15.3442 20.6428 15.3408 20.3435C15.3374 19.9847 15.3262 19.6145 15.4533 19.2736C15.6108 18.8023 16.0214 18.4062 16.5266 18.3117L16.5255 18.3129ZM16.863 18.9969C16.6875 19.0306 16.5187 19.124 16.4107 19.2703C16.2645 19.4536 16.2127 19.7417 16.2093 19.9734C16.2059 20.2918 16.1868 20.6428 16.3815 20.9162C16.5198 21.1333 16.782 21.2458 17.0317 21.2492C17.2939 21.2604 17.5515 21.1479 17.7427 20.9758C17.8024 20.9196 17.8181 20.8374 17.8136 20.7587C17.8136 20.3323 17.8136 19.9059 17.8136 19.4795C17.8136 19.3828 17.754 19.2478 17.6752 19.1949C17.4502 19.0115 17.1465 18.944 16.863 18.9969ZM20.8681 18.3129C21.272 18.2307 21.7017 18.3432 22.0235 18.6009C22.4161 18.908 22.6332 19.4053 22.6411 19.8947C22.649 20.2468 22.6636 20.6057 22.5511 20.9421C22.4352 21.3201 22.1697 21.6531 21.8142 21.832C21.3316 22.075 20.6993 22.0333 20.2808 21.679C20.2504 21.6531 20.1908 21.6002 20.1649 21.6598C20.1537 22.228 20.1683 22.7972 20.1615 23.3654C20.1649 23.4137 20.1199 23.4666 20.0715 23.4666C19.7982 23.4666 19.7307 23.4666 19.4618 23.4666C19.4022 23.4632 19.3268 23.4779 19.293 23.4182C19.2739 23.3552 19.2818 23.2877 19.2818 23.2236C19.2818 21.6373 19.2818 20.0555 19.2818 18.4692C19.2739 18.413 19.3122 18.3455 19.3752 18.35C19.5698 18.3466 19.7644 18.3466 19.9545 18.35C20.067 18.3466 20.0558 18.4884 20.0817 18.5626C20.0929 18.611 20.1075 18.7314 20.1784 18.6819C20.3731 18.4985 20.6082 18.3601 20.8669 18.3117L20.8681 18.3129ZM20.7151 19.0014C20.5576 19.0351 20.4046 19.1026 20.2853 19.2106C20.2178 19.2635 20.166 19.3411 20.166 19.4311C20.1627 19.8384 20.166 20.2952 20.166 20.7024C20.166 20.7879 20.1582 20.8858 20.2189 20.9567C20.4878 21.2301 20.9254 21.3347 21.281 21.1851C21.4722 21.1097 21.6106 20.9454 21.6882 20.7587C21.7928 20.5112 21.7737 20.2389 21.7703 19.9768C21.7703 19.7034 21.6882 19.367 21.4823 19.1803C21.2765 18.989 20.9772 18.9485 20.7151 19.0014ZM24.6245 18.3129C25.0284 18.2307 25.4627 18.3432 25.7799 18.6009C26.1726 18.908 26.3897 19.4053 26.3976 19.8947C26.401 20.213 26.4167 20.5382 26.3346 20.8453C26.2491 21.1929 26.0466 21.5147 25.7507 21.724C25.3389 22.0153 24.7742 22.0716 24.3185 21.859C24.188 21.8027 24.0823 21.7093 23.9709 21.6306C23.9259 21.6306 23.918 21.679 23.9225 21.7127C23.9191 22.2662 23.9259 22.8164 23.9191 23.3699C23.9225 23.4329 23.8561 23.4745 23.7999 23.4666C23.5231 23.4666 23.4331 23.4666 23.1339 23.4666C23.0664 23.4666 23.0326 23.3957 23.0405 23.3361C23.0405 21.7127 23.0405 20.0893 23.0405 18.4659C23.0326 18.4096 23.0709 18.3466 23.1339 18.3466C23.3285 18.3432 23.5231 18.3432 23.7133 18.3466C23.8258 18.3432 23.8145 18.485 23.8404 18.5592C23.8516 18.6076 23.8663 18.728 23.9371 18.6751C24.1352 18.4996 24.3669 18.3612 24.6257 18.3117L24.6245 18.3129ZM24.4704 19.0014C24.287 19.0385 24.1115 19.1285 23.9799 19.2669C23.9315 19.3198 23.9169 19.439 23.9203 19.5065C23.9203 19.9138 23.9203 20.3177 23.9203 20.7261C23.9203 20.8048 23.9203 20.8903 23.9765 20.9544C24.2533 21.2312 24.6988 21.3358 25.0611 21.1716C25.2703 21.0816 25.4132 20.8836 25.4796 20.6698C25.5504 20.4335 25.5324 20.1872 25.5324 19.9442C25.5291 19.682 25.4424 19.3569 25.2444 19.1769C25.0352 18.9901 24.7359 18.9485 24.4704 19.0014ZM33.7811 18.287C34.1209 18.287 34.383 18.3579 34.5822 18.4737C34.6272 18.4996 34.7127 18.5559 34.6834 18.6043C34.545 18.7426 34.4145 18.8585 34.2762 18.9935C34.2087 19.061 34.1637 19.0948 34.1074 19.0689C33.6551 18.8439 33.1455 19.0498 33.1455 19.5403C33.1421 20.303 33.1489 21.0658 33.1421 21.8297C33.1455 21.8927 33.0825 21.9377 33.0229 21.931C32.8024 21.931 32.5774 21.9343 32.3569 21.9276C32.2894 21.931 32.2556 21.8601 32.2635 21.8005C32.2635 20.6889 32.2635 20.6889 32.2635 19.5752C32.2669 18.2172 33.5651 18.2881 33.7823 18.2881L33.7811 18.287ZM30.7582 18.3725C30.7998 18.3354 30.8594 18.3466 30.9112 18.3421C31.1126 18.3455 31.3185 18.3387 31.521 18.3455C31.584 18.3455 31.6177 18.4085 31.6143 18.4647C31.6143 19.5763 31.6143 20.6867 31.6143 21.7971C31.6222 21.8567 31.5885 21.9276 31.521 21.9242C31.2892 21.9276 31.0575 21.9276 30.8291 21.9242C30.7616 21.9276 30.7278 21.8567 30.7323 21.7971C30.7323 20.6934 30.7323 19.5943 30.7323 18.4906C30.7323 18.449 30.7289 18.4051 30.7582 18.3714V18.3725ZM31.17 17.7369L30.6468 17.2137L30.8943 16.8132H31.4512L31.7021 17.2058L31.17 17.7369Z" />
</svg>
