<svg width="40" height="40" viewBox="0 0 40 40" fill="none" xmlns="http://www.w3.org/2000/svg">
<path d="M21.15109 2.32773C20.98719 2.16387 20.82219 2.16387 20.82219 2.16387C20.65828 2.16387 20.65828 2 20.49328 2S20.32937 2 20.16438 2C19.99938 2 20.00059 2 19.83559 2S19.67168 2 19.50668 2C19.34168 2 19.34277 2 19.17777 2S19.01387 2.16387 18.84887 2.16387C18.84887 2.16387 18.68508 2.16387 18.68508 2.32773C18.52117 2.6566 10.13656 8.5741 10.13656 14.98547V37.99996H29.86336V14.98547C29.86336 8.5741 21.47984 2.6566 21.15105 2.32773ZM26.57578 23.69789L15.56238 34.71117H13.42527V13.34105C13.42527 10.05344 18.68617 7.09469 20.00059 5.12145C21.31609 7.09355 26.57578 9.88844 26.57578 13.34105V23.69785Z" />
</svg>
