<svg width="40" height="40" viewBox="0 0 40 40" fill="none" xmlns="http://www.w3.org/2000/svg">
<path d="M27.9557 26.22012L34.9925 17.71063C35.6473 17.05594 35.48301 15.91062 34.82941 15.42012C34.17473 14.76543 33.02941 14.92961 32.53891 15.5832L25.82941 23.60109L19.11992 15.0916L15.8473 10.67371V5.27375H22.3925C23.37469 5.27375 24.02941 4.61898 24.02941 3.63688S23.37473 2 22.3925 2H6.02941C5.0473 2 4.39254 2.65477 4.39254 3.63688S5.0473 5.27375 6.02941 5.27375H12.57469V23.27379C12.57469 24.2559 13.22938 24.91059 14.21148 24.91059C15.19367 24.91059 15.8484 24.2559 15.8484 23.27379V16.07379L23.86629 26.21898L16.33891 35.38207C15.68422 36.03688 15.8484 37.18207 16.50199 37.67258C16.6652 37.83578 17.1568 37.99996 17.48418 37.99996C17.97469 37.99996 18.46629 37.83688 18.79367 37.34527L25.99367 28.83578L32.70316 37.34527C33.03047 37.83578 33.52098 37.99996 34.01266 37.99996C34.33996 37.99996 34.66734 37.83688 34.99477 37.67258C35.64945 37.18207 35.81266 36.03578 35.32215 35.38207L27.95566 26.22008Z" />
</svg>
